<?xml version="1.0" standalone="no"?>
<!DOCTYPE svg PUBLIC "-//W3C//DTD SVG 20010904//EN"
 "http://www.w3.org/TR/2001/REC-SVG-20010904/DTD/svg10.dtd">
<svg version="1.0" xmlns="http://www.w3.org/2000/svg"
 width="1024.000000pt" height="1024.000000pt" viewBox="0 0 1024.000000 1024.000000"
 preserveAspectRatio="xMidYMid meet">

<g transform="translate(0.000000,1024.000000) scale(0.100000,-0.100000)"
fill="#000000" stroke="none">
<path d="M4959 8916 c-2 -2 -30 -6 -61 -10 -163 -17 -344 -73 -523 -161 -238
-117 -377 -224 -533 -410 -184 -219 -302 -459 -362 -739 -89 -410 4 -890 243
-1255 170 -258 512 -531 814 -647 l72 -27 -2 -246 c-3 -323 18 -432 111 -601
92 -166 280 -321 447 -369 370 -108 739 56 906 404 40 81 79 202 79 241 0 19
7 22 63 26 73 5 129 29 154 66 16 24 17 47 14 213 l-3 186 39 6 c21 4 99 7
173 7 149 0 186 10 224 63 20 27 21 40 18 224 -4 290 -2 289 -273 278 l-177
-7 -4 198 c-4 219 -9 241 -63 274 -29 18 -51 20 -237 20 -191 0 -206 -1 -226
-20 -29 -27 -30 -36 -35 -252 -2 -104 -7 -191 -11 -195 -4 -5 -92 -10 -194
-13 -197 -5 -214 -9 -251 -56 -20 -25 -21 -39 -21 -236 l0 -210 34 -34 34 -34
201 0 201 0 0 -201 0 -201 28 -26 c15 -15 36 -32 47 -38 17 -9 17 -14 6 -60
-33 -129 -125 -257 -234 -322 -84 -51 -191 -91 -261 -98 -118 -12 -253 45
-372 158 -58 56 -83 89 -114 152 -54 108 -70 199 -77 443 l-6 202 44 3 c58 4
71 28 67 125 -2 39 -6 74 -9 78 -4 3 -53 17 -110 29 -199 45 -348 108 -496
207 -336 227 -549 550 -633 959 -19 93 -21 126 -17 290 6 191 20 282 68 430
58 177 186 378 343 537 211 212 457 345 758 410 112 24 414 24 543 0 586 -109
1039 -560 1156 -1150 41 -210 35 -410 -18 -633 -48 -201 -42 -259 31 -289 77
-32 151 26 186 146 50 168 63 264 64 469 1 260 -12 357 -76 550 -138 418 -451
776 -853 975 -256 127 -460 175 -746 175 -91 0 -168 -2 -170 -4z"/>
<path d="M5071 8564 l-31 -26 0 -170 0 -170 29 -29 c39 -38 78 -38 114 -1 l27
28 0 173 0 172 -26 24 c-35 32 -74 32 -113 -1z"/>
<path d="M5835 8154 c-22 -15 -139 -133 -260 -262 -121 -129 -257 -274 -302
-322 l-83 -87 -49 5 c-27 2 -64 -1 -81 -7 -32 -11 -35 -8 -190 119 -218 178
-225 183 -280 177 -62 -7 -100 -50 -100 -113 0 -25 7 -58 16 -72 9 -15 99 -90
200 -167 l183 -140 1 -40 c1 -93 54 -178 130 -209 53 -21 155 -23 200 -3 47
20 99 72 117 116 17 40 18 135 3 177 -8 19 -7 31 2 42 13 15 327 308 531 496
59 54 115 112 122 127 8 15 15 49 15 75 0 39 -5 51 -34 80 -43 43 -85 45 -141
8z"/>
<path d="M3821 7304 c-31 -40 -28 -87 10 -118 30 -25 35 -26 170 -26 135 0
141 1 164 25 32 31 34 96 5 125 -18 18 -33 20 -174 20 l-155 0 -20 -26z"/>
<path d="M6070 7310 c-28 -28 -36 -69 -19 -99 24 -43 53 -51 197 -51 l134 0
29 29 c35 35 38 77 8 115 l-20 26 -155 0 c-140 0 -156 -2 -174 -20z"/>
<path d="M3875 3963 c-299 -35 -549 -242 -641 -528 -34 -106 -39 -147 -38
-290 1 -147 19 -228 78 -350 98 -202 245 -333 451 -403 81 -27 114 -33 226
-37 118 -5 243 20 346 69 l71 34 29 -34 28 -35 152 3 151 3 -85 108 -84 109
41 54 c106 140 160 308 160 494 0 320 -160 588 -436 728 -119 60 -308 92 -449
75z m201 -254 c292 -54 470 -382 385 -712 -20 -75 -66 -177 -81 -177 -4 0 -34
34 -66 75 l-58 74 -148 3 c-81 2 -148 2 -148 0 0 -2 54 -73 120 -157 66 -84
120 -156 120 -159 0 -11 -110 -44 -170 -51 -143 -15 -282 31 -386 128 -171
158 -221 458 -118 696 92 210 314 323 550 280z"/>
<path d="M5005 3175 l0 -785 133 0 132 0 0 785 0 785 -132 0 -133 0 0 -785z"/>
<path d="M5620 3898 c-103 -70 -107 -188 -9 -261 62 -46 183 -27 229 35 35 48
39 123 8 167 -36 53 -69 72 -134 78 -51 4 -64 2 -94 -19z"/>
<path d="M6600 3446 c-71 -19 -136 -56 -185 -105 l-45 -45 0 67 0 67 -135 0
-135 0 0 -520 0 -520 133 0 132 0 0 338 0 337 27 52 c45 84 113 123 215 123
105 0 176 -62 193 -166 6 -33 10 -200 10 -371 l0 -313 130 0 130 0 -1 388 c0
345 -3 393 -19 445 -56 179 -253 277 -450 223z"/>
<path d="M5580 2910 l0 -520 135 0 135 0 0 520 0 520 -135 0 -135 0 0 -520z"/>
</g>
</svg>
