<?xml version="1.0" encoding="UTF-8"?>
<svg version="1.1" xmlns="http://www.w3.org/2000/svg" width="1024" height="1024">
<path d="M0 0 C39.91270639 -0.98145999 78.81358854 12.79894956 109.5 38.15625 C110.36020752 38.85621094 110.36020752 38.85621094 111.23779297 39.5703125 C124.37484697 50.29502343 135.15045337 61.99967939 144.5 76.15625 C144.88397949 76.73713379 145.26795898 77.31801758 145.66357422 77.91650391 C168.96766094 113.72231391 178.08483955 158.6694076 169.5 200.671875 C169.17235838 202.16792453 168.83860113 203.66264279 168.5 205.15625 C168.30277344 206.03732422 168.10554688 206.91839844 167.90234375 207.82617188 C167.24636964 210.65628772 166.5386317 213.46837803 165.8125 216.28125 C165.60536377 217.1582959 165.39822754 218.0353418 165.18481445 218.93896484 C163.36742585 225.56004342 160.22929385 229.36237289 154.5 233.15625 C151.07245902 234.29876366 149.35196977 234.35909994 145.875 233.53125 C142.80293108 231.75268379 141.35284882 230.20021593 139.5 227.15625 C137.84621457 219.93225195 139.41218752 214.21157446 141.3125 207.15625 C151.03675036 168.71899107 146.88740639 128.51278212 126.609375 93.97216797 C105.76630664 59.85448697 74.64880804 37.59732861 36.11816406 27.53417969 C-0.23620112 18.8641692 -41.04622978 24.85329229 -73.01879883 44.36547852 C-106.27653082 65.56018884 -129.5794193 96.19489417 -138.625 134.7421875 C-139.34497931 138.21054937 -139.98544257 141.65215645 -140.5 145.15625 C-140.68046875 146.31640625 -140.8609375 147.4765625 -141.046875 148.671875 C-143.20772892 166.66253961 -142.44561644 185.72238749 -137.5 203.15625 C-137.28569336 203.92324219 -137.07138672 204.69023437 -136.85058594 205.48046875 C-133.63322632 216.66395459 -129.12918951 226.98689674 -123.5 237.15625 C-123.1400293 237.80754883 -122.78005859 238.45884766 -122.40917969 239.12988281 C-105.44872031 269.40677713 -76.75987105 293.9932003 -43.15625 303.84326172 C-38.32114015 305.18305383 -33.46022119 306.41480051 -28.59228516 307.62890625 C-25.83982093 308.32264286 -23.10400196 309.06291968 -20.375 309.84375 C-19.62992188 310.05386719 -18.88484375 310.26398438 -18.1171875 310.48046875 C-16.5 311.15625 -16.5 311.15625 -15.5 313.15625 C-15.34938099 315.62987762 -15.26874683 318.05666815 -15.25 320.53125 C-15.2190625 321.54058594 -15.2190625 321.54058594 -15.1875 322.5703125 C-15.16427751 325.51956918 -15.39305476 327.89546814 -16.515625 330.6328125 C-19.69781878 333.07583528 -22.56936528 332.41399654 -26.5 332.15625 C-26.99673223 374.51926318 -26.99673223 374.51926318 -8.25 410.96875 C0.31271133 418.99356605 11.55111587 426.1172166 23.5 427.15625 C24.675625 427.259375 25.85125 427.3625 27.0625 427.46875 C41.09688397 427.2024429 56.50114848 419.09673753 66.3828125 409.5390625 C73.76244463 401.23357246 77.72760979 390.7837458 80.5 380.15625 C79.7575 379.90875 79.015 379.66125 78.25 379.40625 C75.03805723 377.94627601 73.60735765 377.00790371 71.5 374.15625 C70.94294625 371.03333729 71.03483837 367.96020977 71.109375 364.796875 C71.11503479 363.89249695 71.12069458 362.9881189 71.12652588 362.05633545 C71.14888752 359.17243147 71.19908314 356.28977739 71.25 353.40625 C71.27006529 351.44923671 71.28831601 349.49220392 71.3046875 347.53515625 C71.34875161 342.74170711 71.41777748 337.94919035 71.5 333.15625 C70.31970215 333.18243408 69.1394043 333.20861816 67.92333984 333.2355957 C63.52900271 333.32634567 59.13474779 333.38358906 54.73974609 333.4309082 C52.84051569 333.45599604 50.9413813 333.49007468 49.04248047 333.53344727 C46.30672479 333.5943533 43.5722493 333.62251653 40.8359375 333.64453125 C39.56996231 333.68324089 39.56996231 333.68324089 38.27841187 333.72273254 C34.04106723 333.72473192 31.3381652 333.46819098 27.97900391 330.75073242 C24.96460606 327.595916 24.37978785 326.26682088 24.30712891 322.0612793 C24.29106598 321.21667648 24.27500305 320.37207367 24.25845337 319.50187683 C24.21398455 315.63740848 24.1729378 311.77311166 24.14990234 307.90844727 C24.13334348 305.87057067 24.10605442 303.83275214 24.06787109 301.79516602 C24.0130876 298.8566272 23.99122624 295.91944955 23.9765625 292.98046875 C23.95389313 292.07197678 23.93122375 291.1634848 23.90786743 290.22746277 C23.92270776 285.78032046 24.0113883 283.7960439 26.78271484 280.16723633 C35.87048524 273.44163303 47.27161207 275.02109601 58.125 275.09375 C60.06052734 275.10051758 60.06052734 275.10051758 62.03515625 275.10742188 C65.19015375 275.11910705 68.34505137 275.13548956 71.5 275.15625 C71.49476318 274.31030273 71.48952637 273.46435547 71.48413086 272.59277344 C71.46688673 269.39453391 71.45445296 266.1963184 71.44506836 262.99804688 C71.44010049 261.62499197 71.4333239 260.25194218 71.42456055 258.87890625 C71.27494992 234.80039616 71.27494992 234.80039616 74.875 229.96875 C79.29882567 226.9142037 83.23421565 226.98252039 88.421875 226.953125 C89.20008606 226.94742493 89.97829712 226.94172485 90.78009033 226.93585205 C92.42759851 226.92640944 94.07512552 226.919871 95.72265625 226.91601562 C98.22690412 226.90633924 100.73032071 226.875322 103.234375 226.84375 C104.83853682 226.83721647 106.44270448 226.83196737 108.046875 226.828125 C108.78879089 226.8157782 109.53070679 226.8034314 110.29510498 226.79071045 C115.41237619 226.81232435 118.96357151 227.73824132 123.5 230.15625 C128.39352252 236.2087647 128.64703229 241.09558035 128.59765625 248.640625 C128.59553383 249.86401581 128.59553383 249.86401581 128.59336853 251.11212158 C128.58778303 253.71020212 128.57523321 256.30819563 128.5625 258.90625 C128.55748312 260.67057167 128.55292054 262.43489469 128.54882812 264.19921875 C128.53781835 268.51826256 128.52056369 272.83724154 128.5 277.15625 C129.17417969 276.99543945 129.84835937 276.83462891 130.54296875 276.66894531 C136.06204133 275.71203874 141.68594294 275.93087199 147.27441406 275.91601562 C149.49321565 275.90627977 151.71110163 275.87520536 153.9296875 275.84375 C155.34895288 275.8372216 156.76822482 275.83197049 158.1875 275.828125 C159.47011719 275.8187793 160.75273438 275.80943359 162.07421875 275.79980469 C166.70703013 276.28183894 169.32236924 277.7290551 172.26953125 281.30078125 C173.94011409 285.17759414 174.070263 288.65889873 174.1875 292.84375 C174.21875977 293.67229492 174.25001953 294.50083984 174.28222656 295.35449219 C174.37182685 297.95486977 174.43712797 300.55510261 174.5 303.15625 C174.54084717 304.40946045 174.54084717 304.40946045 174.58251953 305.68798828 C174.65808181 308.09410039 174.70887108 310.49932526 174.75 312.90625 C174.77151123 313.63158936 174.79302246 314.35692871 174.81518555 315.10424805 C174.84710158 320.28126999 173.85901456 323.65165553 171.5 328.15625 C166.47638931 332.92868016 162.22453201 333.3239624 155.55078125 333.47265625 C154.77816452 333.49343735 154.00554779 333.51421844 153.20951843 333.53562927 C150.7439352 333.60096038 148.27824639 333.65993315 145.8125 333.71875 C144.13996309 333.76195087 142.46743681 333.80556566 140.79492188 333.84960938 C136.6967225 333.9566249 132.59841704 334.05793857 128.5 334.15625 C128.55124023 335.21013916 128.60248047 336.26402832 128.65527344 337.34985352 C128.84081409 341.28334367 128.9980244 345.2175563 129.14697266 349.15258789 C129.21516742 350.85115454 129.29090472 352.54943664 129.37451172 354.24731445 C129.49380104 356.69705711 129.58535535 359.14656328 129.671875 361.59765625 C129.73565338 362.72464684 129.73565338 362.72464684 129.80072021 363.87440491 C129.95824784 369.4569951 128.69782239 372.56220042 125.5 377.15625 C120.73879378 380.72715467 116.59130798 381.28828938 110.75 381.21875 C109.76515625 381.20972656 108.7803125 381.20070313 107.765625 381.19140625 C107.01796875 381.17980469 106.2703125 381.16820312 105.5 381.15625 C105.48582031 381.70410156 105.47164062 382.25195312 105.45703125 382.81640625 C104.27113991 402.52784337 93.5859366 419.8908534 79.5 433.15625 C63.27864611 446.9106548 43.1761201 453.44720259 22.0234375 451.90234375 C4.93491754 449.63882858 -9.73903856 442.63321377 -22.5 431.15625 C-23.56347656 430.23392578 -23.56347656 430.23392578 -24.6484375 429.29296875 C-38.47384537 416.53315556 -45.72558703 398.39951228 -48.5 380.15625 C-48.68691406 378.99996094 -48.87382812 377.84367187 -49.06640625 376.65234375 C-49.76595499 370.83747617 -49.648622 364.98009306 -49.63037109 359.13208008 C-49.62507593 357.12256446 -49.63081709 355.11302956 -49.63671875 353.10351562 C-49.62786139 344.07343948 -49.20905849 335.15677029 -48.5 326.15625 C-49.40661377 325.9097168 -49.40661377 325.9097168 -50.33154297 325.65820312 C-56.717441 323.84314719 -62.6403403 321.51972894 -68.625 318.65625 C-69.98588745 318.0058374 -69.98588745 318.0058374 -71.37426758 317.34228516 C-80.02423667 313.0898968 -87.82693198 307.9646024 -95.5 302.15625 C-96.91345703 301.08890625 -96.91345703 301.08890625 -98.35546875 300 C-118.48152369 284.27359428 -134.70356357 266.82169449 -146.5 244.15625 C-147.40878906 242.4546875 -147.40878906 242.4546875 -148.3359375 240.71875 C-156.79620115 223.87478617 -162.19354421 204.84445585 -164.5 186.15625 C-164.64050781 185.07859375 -164.78101563 184.0009375 -164.92578125 182.890625 C-169.34020609 138.85274831 -155.16888743 95.38898893 -127.421875 61.33984375 C-98.2084449 26.238906 -57.94701624 6.43697263 -12.8515625 0.69140625 C-8.57016119 0.30555156 -4.29303607 0.1916534 0 0 Z " fill="#173E6A" transform="translate(509.5,130.84375)"/>
<path d="M0 0 C15.58098863 12.05204948 26.37614291 29.99250102 29.68652344 49.47802734 C32.64594915 73.28711424 28.86125494 96.23764319 14 115.5 C13.01456878 116.67899806 12.02085532 117.85153776 11 119 C12.31203011 121.8190081 13.77471782 124.1338309 15.75 126.53125 C16.53890625 127.49998047 16.53890625 127.49998047 17.34375 128.48828125 C17.8903125 129.15214844 18.436875 129.81601562 19 130.5 C20.08680899 131.82006281 21.17026299 133.14289646 22.25 134.46875 C22.96929687 135.34176758 22.96929687 135.34176758 23.703125 136.23242188 C25.05438784 138.07412801 26.03766086 139.93233266 27 142 C22.6768192 142.14879892 18.35500997 142.25741862 14.0300293 142.32958984 C12.56036404 142.35968538 11.09087729 142.40057406 9.62182617 142.45263672 C7.50394659 142.5257907 5.38844755 142.55952214 3.26953125 142.5859375 C1.99698486 142.6173584 0.72443848 142.6487793 -0.58666992 142.68115234 C-5.30667629 141.7392442 -6.31700103 139.88665014 -9 136 C-9.81082031 136.39832031 -10.62164062 136.79664063 -11.45703125 137.20703125 C-31.85127338 146.96492824 -53.56537797 149.18261894 -75.1796875 141.93359375 C-96.07156087 133.71250592 -111.58922837 119.93570234 -120.671875 99.36791992 C-129.52266655 77.77435929 -129.97894084 53.23062596 -121.26953125 31.55859375 C-117.42940139 22.59436422 -112.70152928 15.15305075 -106 8 C-105.37609375 7.28585937 -104.7521875 6.57171875 -104.109375 5.8359375 C-76.85964252 -23.81818314 -30.82860106 -21.59142467 0 0 Z M-84 23 C-92.69732077 34.05364336 -98.21570925 45.83523371 -99 60 C-99.05285156 60.83015625 -99.10570312 61.6603125 -99.16015625 62.515625 C-99.69028253 78.28111964 -94.78193616 94.34855285 -84 106 C-74.21688799 116.22779892 -62.73352424 120.68938617 -48.6875 121.3125 C-41.19797565 121.13611627 -32.56190099 119.72651168 -26 116 C-27.36985026 113.04869993 -28.95853265 110.60698339 -30.9765625 108.05859375 C-31.56566406 107.30900391 -32.15476562 106.55941406 -32.76171875 105.78710938 C-33.37660156 105.01173828 -33.99148438 104.23636719 -34.625 103.4375 C-39.91935925 96.74169271 -45.01846803 89.93221047 -50 83 C-25.10007446 81.5267626 -25.10007446 81.5267626 -18.48095703 85.51953125 C-14.3316932 89.41759968 -11.73897615 94.06271328 -9 99 C-8.34 99 -7.68 99 -7 99 C2.46394837 81.72599714 4.96379223 65.08259426 0 46 C-4.24763102 32.47169592 -12.13795014 21.35205311 -24.69921875 14.53515625 C-44.23350419 5.13581388 -68.17317116 7.17317116 -84 23 Z " fill="#173E6A" transform="translate(446,643)"/>
<path d="M0 0 C7.23422076 5.15196731 11.67772921 11.9288054 13.87937927 20.5690155 C14.43275566 24.09055907 14.45179935 27.54882959 14.43383789 31.1027832 C14.43398392 31.86429184 14.43412994 32.62580048 14.4342804 33.41038513 C14.43358637 35.91554662 14.4258179 38.42063282 14.41796875 40.92578125 C14.41610276 42.66741393 14.41467971 44.40904714 14.41368103 46.15068054 C14.40987012 50.72585509 14.40005203 55.3009977 14.38897705 59.87615967 C14.37873225 64.54829476 14.37417684 69.22043503 14.36914062 73.89257812 C14.35842845 83.05340168 14.34084322 92.21419318 14.3203125 101.375 C5.7403125 101.375 -2.8396875 101.375 -11.6796875 101.375 C-11.69950684 99.48861816 -11.71932617 97.60223633 -11.73974609 95.65869141 C-11.80780398 89.39216133 -11.88459949 83.12578474 -11.96721458 76.85943031 C-12.01693857 73.06403813 -12.06326844 69.26867061 -12.1015625 65.47314453 C-12.13872009 61.80310026 -12.18515773 58.13327523 -12.23775101 54.46342087 C-12.25613457 53.07059999 -12.27130017 51.67773242 -12.28303146 50.28483963 C-12.02893257 34.78090263 -12.02893257 34.78090263 -18.6796875 21.375 C-23.84595132 17.3817526 -29.23289844 16.68231611 -35.64453125 16.93359375 C-41.48133574 17.78244691 -46.51226069 19.80804751 -50.375 24.3828125 C-53.72624011 29.57244719 -54.80485995 33.76332781 -54.88500977 39.95776367 C-54.89985916 40.95328499 -54.89985916 40.95328499 -54.91500854 41.96891785 C-54.9465684 44.16023199 -54.97135905 46.35156781 -54.99609375 48.54296875 C-55.01666805 50.06326355 -55.03766465 51.58355269 -55.05906677 53.10383606 C-55.11423834 57.10358087 -55.16366925 61.10337689 -55.21191406 65.10321045 C-55.262165 69.18538974 -55.31783231 73.26749474 -55.37304688 77.34960938 C-55.48056834 85.35801179 -55.58152605 93.36647738 -55.6796875 101.375 C-64.5896875 101.375 -73.4996875 101.375 -82.6796875 101.375 C-82.6796875 67.055 -82.6796875 32.735 -82.6796875 -2.625 C-73.7696875 -2.625 -64.8596875 -2.625 -55.6796875 -2.625 C-55.3496875 1.335 -55.0196875 5.295 -54.6796875 9.375 C-54.2053125 8.67375 -53.7309375 7.9725 -53.2421875 7.25 C-39.82011529 -7.80891028 -16.90524505 -10.25157717 0 0 Z " fill="#173D69" transform="translate(692.6796875,683.625)"/>
<path d="M0 0 C3.68371887 1.96710588 6.32372011 4.17899267 7.80078125 8.15625 C8.75946011 13.8114869 7.27196299 17.33528052 4 22 C2.10271273 24.2608636 0.05712765 26.32316026 -2.0625 28.375 C-2.63758301 28.9417041 -3.21266602 29.5084082 -3.80517578 30.09228516 C-8.00686859 34.17800522 -12.44608413 37.84994206 -17.04296875 41.484375 C-21.5008074 45.2767767 -25.5470769 49.45293194 -29.65258789 53.61914062 C-33.93984171 57.96417414 -38.34227081 62.05440296 -43 66 C-45.54817316 68.24791071 -48.07669146 70.51300334 -50.58203125 72.80859375 C-52.10884763 74.19234817 -53.66594443 75.54402714 -55.26171875 76.84765625 C-57.1624603 78.48699916 -58.68419817 79.86122394 -60 82 C-59.97755526 84.25794036 -59.46787758 85.91581532 -58.703125 88.03515625 C-56.52084137 94.13342662 -58.43046609 100.34496151 -61 106 C-64.20461415 111.30580804 -69.02541607 114.81000481 -74.95703125 116.5859375 C-82.50993153 118.11673564 -89.35907371 116.9341461 -96 113 C-100.9595041 108.61696963 -104.73714915 103.89544958 -105.1953125 97.10546875 C-105.17210937 96.14253906 -105.14890625 95.17960937 -105.125 94.1875 C-105.10695313 93.21167969 -105.08890625 92.23585938 -105.0703125 91.23046875 C-105.04710937 90.49441406 -105.02390625 89.75835937 -105 89 C-105.51304687 88.77828125 -106.02609375 88.5565625 -106.5546875 88.328125 C-109.9967102 86.4586558 -113.01083477 84.11703975 -116.125 81.75 C-116.81352051 81.22857422 -117.50204102 80.70714844 -118.21142578 80.16992188 C-119.6925512 79.04555421 -121.17215334 77.9191777 -122.65039062 76.79101562 C-124.25571024 75.56734307 -125.86392109 74.34745661 -127.47460938 73.13085938 C-129.94773179 71.26206415 -132.41227614 69.38246972 -134.875 67.5 C-135.65375488 66.9131543 -136.43250977 66.32630859 -137.23486328 65.72167969 C-137.95915527 65.16383789 -138.68344727 64.60599609 -139.4296875 64.03125 C-140.07147949 63.54205078 -140.71327148 63.05285156 -141.37451172 62.54882812 C-144.55989713 59.51366966 -145.32354866 56.42833878 -145.4375 52.125 C-145.37763273 48.44044176 -144.97772017 46.3037933 -142.625 43.4375 C-139.05586016 40.12329872 -137.1963207 39.85509679 -132.36328125 39.57421875 C-125.93580464 40.73222693 -120.91439272 45.54104052 -116.1875 49.75 C-114.96207509 50.82161476 -113.73550638 51.89192293 -112.5078125 52.9609375 C-111.91258789 53.48010742 -111.31736328 53.99927734 -110.70410156 54.53417969 C-107.60602176 57.19906094 -104.39822236 59.72149251 -101.1796875 62.23828125 C-98.53771329 64.37364033 -96.08186669 66.67732988 -93.66796875 69.06640625 C-91.23292451 70.4293467 -89.66924985 69.61416368 -87 69 C-85.14513515 69.22344526 -83.29099666 69.45297593 -81.4375 69.6875 C-76.39649296 69.7557895 -73.88980463 68.61322803 -70.23071289 65.11669922 C-67.72303586 62.489609 -65.33940901 59.77708739 -63 57 C-62.37738281 56.30003906 -61.75476563 55.60007812 -61.11328125 54.87890625 C-60.02851433 53.65755851 -58.95570142 52.4254985 -57.89453125 51.18359375 C-51.00025769 43.23741041 -43.72060412 35.6643234 -36.2421875 28.26953125 C-32.30060389 24.27987955 -28.69609396 20.01454426 -25.0859375 15.7265625 C-24.45945312 14.99179688 -23.83296875 14.25703125 -23.1875 13.5 C-22.62417969 12.8296875 -22.06085938 12.159375 -21.48046875 11.46875 C-20 10 -20 10 -18 10 C-17.75636719 9.40703125 -17.51273438 8.8140625 -17.26171875 8.203125 C-13.87896173 2.29639139 -6.62234803 -1.47163289 0 0 Z " fill="#183E6A" transform="translate(594,206)"/>
<path d="M0 0 C8.91 0 17.82 0 27 0 C27 51.81 27 103.62 27 157 C18.09 157 9.18 157 0 157 C0 105.19 0 53.38 0 0 Z " fill="#193F6A" transform="translate(500,628)"/>
<path d="M0 0 C8.91 0 17.82 0 27 0 C27 34.32 27 68.64 27 104 C18.09 104 9.18 104 0 104 C0 69.68 0 35.36 0 0 Z " fill="#18406C" transform="translate(558,681)"/>
<path d="M0 0 C3.77702297 2.63513231 6.60374735 5.7074947 8.6875 9.875 C9.27856487 15.55831608 8.95993416 20.02277003 5.6875 24.875 C0.56094883 29.61705984 -3.65820424 30.29070777 -10.44921875 30.21875 C-14.95007298 29.67840188 -18.01348141 27.9314437 -21.3125 24.875 C-24.70649399 20.20825826 -25.17008688 15.46880532 -24.3125 9.875 C-22.87999449 5.52632256 -20.79190193 3.2489335 -17.1875 0.4375 C-11.64834565 -2.3261211 -5.73516407 -1.94779157 0 0 Z " fill="#173C68" transform="translate(578.3125,633.125)"/>
<path d="M0 0 C4.34433642 0.77577436 5.76201776 2.24278665 8.5 5.625 C10.6309611 9.88692219 9.72698156 15.53241841 9.74023438 20.26367188 C9.74989952 22.35327579 9.7809027 24.44187869 9.8125 26.53125 C9.81903453 27.86978585 9.82428323 29.20832871 9.828125 30.546875 C9.84214355 32.36590332 9.84214355 32.36590332 9.85644531 34.22167969 C9.45865259 38.01978281 8.50845459 40.39288239 6.5 43.625 C2.74952518 46.12531654 0.94143734 46.16103554 -3.5 45.625 C-7.09824095 42.90554385 -8.36221376 41.41324126 -9.14697266 36.92382812 C-9.17973216 35.50166794 -9.18394443 34.0786485 -9.1640625 32.65625 C-9.16884613 31.89832153 -9.17362976 31.14039307 -9.17855835 30.35949707 C-9.18194946 28.76259273 -9.172802 27.16561822 -9.15185547 25.56884766 C-9.12507204 23.13155598 -9.15162307 20.69886808 -9.18359375 18.26171875 C-9.1802895 16.70571905 -9.17388295 15.14972221 -9.1640625 13.59375 C-9.17418365 12.86965942 -9.18430481 12.14556885 -9.19473267 11.39953613 C-9.10515617 7.51082882 -8.60517002 5.75897736 -6.17724609 2.66601562 C-3.5 0.625 -3.5 0.625 0 0 Z " fill="#1C3F6A" transform="translate(512.5,164.375)"/>
<path d="M0 0 C1.18013672 -0.02900391 2.36027344 -0.05800781 3.57617188 -0.08789062 C5.28450195 -0.10045898 5.28450195 -0.10045898 7.02734375 -0.11328125 C8.0649585 -0.12786377 9.10257324 -0.14244629 10.17163086 -0.1574707 C13.79378036 0.43138478 15.44306875 1.79724901 18.0625 4.3125 C19.65189347 7.49128694 19.47826711 9.8081772 19.0625 13.3125 C16.26344349 16.77871514 14.5558092 18.08600837 10.1184082 18.7590332 C6.56595732 18.91411377 3.05472065 18.89547491 -0.5 18.8125 C-2.32821289 18.81636719 -2.32821289 18.81636719 -4.19335938 18.8203125 C-14.35251791 18.70885711 -14.35251791 18.70885711 -18.9375 15.3125 C-21.27918764 11.79996854 -21.43373677 10.44780644 -20.9375 6.3125 C-18.07474246 1.71163966 -18.07474246 1.71163966 -15.16577148 0.69067383 C-10.16823628 -0.15748899 -5.05543095 0.04128006 0 0 Z " fill="#163C68" transform="translate(624.9375,289.6875)"/>
<path d="M0 0 C0.97646484 -0.01224609 1.95292969 -0.02449219 2.95898438 -0.03710938 C12.45654571 -0.05642645 12.45654571 -0.05642645 17.0625 2.1875 C19.125 5.375 19.125 5.375 20.0625 9.1875 C18.74740819 13.64420001 17.95340481 15.59356346 14.0625 18.1875 C11.21508789 18.44628906 11.21508789 18.44628906 7.78515625 18.453125 C6.54958984 18.45570313 5.31402344 18.45828125 4.04101562 18.4609375 C2.74873047 18.45320313 1.45644531 18.44546875 0.125 18.4375 C-1.80762695 18.44910156 -1.80762695 18.44910156 -3.77929688 18.4609375 C-5.01615234 18.45835937 -6.25300781 18.45578125 -7.52734375 18.453125 C-8.66034912 18.45086914 -9.79335449 18.44861328 -10.96069336 18.44628906 C-13.89688596 18.19103079 -15.51908299 17.8296815 -17.9375 16.1875 C-20.39093415 12.50734877 -20.63576855 9.46331727 -19.9375 5.1875 C-18.03078672 2.43335859 -16.85604174 1.41932841 -13.61108398 0.6003418 C-9.08445889 -0.09863757 -4.57161605 0.00300566 0 0 Z " fill="#173C68" transform="translate(399.9375,289.8125)"/>
<path d="M0 0 C8.91 0 17.82 0 27 0 C27 34.32 27 68.64 27 104 C18.09 104 9.18 104 0 104 C0 69.68 0 35.36 0 0 Z M1 2 C1 35.33 1 68.66 1 103 C8.92 103 16.84 103 25 103 C25 69.67 25 36.34 25 2 C17.08 2 9.16 2 1 2 Z " fill="#06214F" transform="translate(558,681)"/>
<path d="M0 0 C1.01900391 -0.00386719 2.03800781 -0.00773437 3.08789062 -0.01171875 C4.56612305 -0.00978516 4.56612305 -0.00978516 6.07421875 -0.0078125 C6.96069092 -0.00668457 7.84716309 -0.00555664 8.76049805 -0.00439453 C11.36522446 0.1276733 13.77184805 0.55000584 16.3125 1.125 C16.3125 1.785 16.3125 2.445 16.3125 3.125 C4.7625 3.125 -6.7875 3.125 -18.6875 3.125 C-19.0175 2.465 -19.3475 1.805 -19.6875 1.125 C-13.0955686 0.13266624 -6.66018637 -0.02556693 0 0 Z " fill="#314A72" transform="translate(564.6875,405.875)"/>
<path d="M0 0 C0.71220703 0.00193359 1.42441406 0.00386719 2.15820312 0.00585938 C7.62641806 0.05039687 13.01465332 0.39500141 18.4375 1.125 C18.4375 2.115 18.4375 3.105 18.4375 4.125 C10.6875 4.25 10.6875 4.25 8.4375 3.125 C6.98901418 3.04157841 5.53679131 3.01767139 4.0859375 3.02734375 C2.80976562 3.03217773 2.80976562 3.03217773 1.5078125 3.03710938 C0.61835937 3.04548828 -0.27109375 3.05386719 -1.1875 3.0625 C-2.53328125 3.06926758 -2.53328125 3.06926758 -3.90625 3.07617188 C-6.12506648 3.08797409 -8.34375018 3.10443845 -10.5625 3.125 C-10.5625 2.465 -10.5625 1.805 -10.5625 1.125 C-6.98357547 -0.06797484 -3.72356696 -0.02406738 0 0 Z " fill="#2C4B72" transform="translate(513.5625,130.875)"/>
<path d="M0 0 C3.60401481 -0.08701039 7.20776012 -0.14039388 10.8125 -0.1875 C12.34874023 -0.22520508 12.34874023 -0.22520508 13.91601562 -0.26367188 C15.39038086 -0.27817383 15.39038086 -0.27817383 16.89453125 -0.29296875 C18.25348511 -0.31653442 18.25348511 -0.31653442 19.63989258 -0.34057617 C22 0 22 0 25 3 C15.76 3 6.52 3 -3 3 C-2.01 2.67 -1.02 2.34 0 2 C0 1.34 0 0.68 0 0 Z " fill="#425476" transform="translate(389,290)"/>
<path d="M0 0 C1.03125 0.00322266 2.0625 0.00644531 3.125 0.00976562 C4.74535156 0.02233398 4.74535156 0.02233398 6.3984375 0.03515625 C8.03039062 0.04192383 8.03039062 0.04192383 9.6953125 0.04882812 C12.38807539 0.06063849 15.08072938 0.07710847 17.7734375 0.09765625 C17.7734375 1.08765625 17.7734375 2.07765625 17.7734375 3.09765625 C9.8534375 3.09765625 1.9334375 3.09765625 -6.2265625 3.09765625 C-6.5565625 2.43765625 -6.8865625 1.77765625 -7.2265625 1.09765625 C-4.66933021 -0.1809599 -2.85919148 -0.01570984 0 0 Z " fill="#364F75" transform="translate(617.2265625,289.90234375)"/>
<path d="M0 0 C9.57 0 19.14 0 29 0 C29 0.66 29 1.32 29 2 C16.625 2.495 16.625 2.495 4 3 C4.33 4.32 4.66 5.64 5 7 C3.29115995 5.37660195 1.62553283 3.70680947 0 2 C0 1.34 0 0.68 0 0 Z " fill="#374B73" transform="translate(396,726)"/>
<path d="M0 0 C0.99 0.33 1.98 0.66 3 1 C4.69867188 1.14777936 6.40177489 1.24747066 8.10546875 1.31640625 C9.57983398 1.37924805 9.57983398 1.37924805 11.08398438 1.44335938 C12.62022461 1.50233398 12.62022461 1.50233398 14.1875 1.5625 C15.74114258 1.62727539 15.74114258 1.62727539 17.32617188 1.69335938 C19.8839819 1.79944366 22.44188845 1.90150146 25 2 C25 2.33 25 2.66 25 3 C15.76 3 6.52 3 -3 3 C-2.01 2.67 -1.02 2.34 0 2 C0 1.34 0 0.68 0 0 Z " fill="#264C74" transform="translate(389,290)"/>
<path d="M0 0 C0.33 0 0.66 0 1 0 C1 5.28 1 10.56 1 16 C0.01 15.67 -0.98 15.34 -2 15 C-2 14.01 -2 13.02 -2 12 C-1.34 12 -0.68 12 0 12 C0 8.04 0 4.08 0 0 Z " fill="#294D75" transform="translate(462,460)"/>
<path d="M0 0 C3 2 3 2 3.8125 4.9375 C4 8 4 8 2 11 C0.57741188 7.17679443 -0.24042276 4.08718695 0 0 Z " fill="#244771" transform="translate(483,510)"/>
<path d="M0 0 C0.99 0 1.98 0 3 0 C2.67 3.3 2.34 6.6 2 10 C0.0044484 6.00889681 -0.19546065 4.30013434 0 0 Z " fill="#224770" transform="translate(655,317)"/>
</svg>
